<svg width="709" height="83" viewBox="0 0 709 83" fill="none" xmlns="http://www.w3.org/2000/svg">
<path d="M31.6997 82.9858C27.1706 82.9858 22.9377 82.4284 19.0009 81.3136C15.0989 80.1987 11.7892 78.8748 9.07173 77.3419L5.46589 81H1.02391L0.344548 54.1914H4.83878C5.84912 56.7346 7.13816 59.4172 8.70592 62.2392C10.2737 65.0611 12.0853 67.587 14.1408 69.8167C16.266 72.1509 18.635 74.0496 21.248 75.5129C23.8957 76.9761 26.979 77.7077 30.4977 77.7077C35.2359 77.7077 38.8591 76.558 41.3675 74.2586C43.9108 71.9244 45.1824 68.9979 45.1824 65.4792C45.1824 62.5876 44.1024 60.1663 41.9424 58.2153C39.8172 56.2294 36.5075 54.5223 32.0132 53.0939C29.0868 52.1533 26.3867 51.2823 23.9132 50.481C21.4744 49.6797 19.1751 48.861 17.015 48.0248C12.033 46.039 8.32269 43.1996 5.88396 39.5067C3.48006 35.8138 2.27812 31.6853 2.27812 27.1214C2.27812 24.2298 2.90522 21.4601 4.15942 18.8123C5.41363 16.1297 7.24268 13.7258 9.64657 11.6006C11.9459 9.6148 14.8898 7.99478 18.4783 6.74058C22.0667 5.48637 25.9687 4.85927 30.1842 4.85927C34.2952 4.85927 38.1449 5.43411 41.7333 6.5838C45.3218 7.69865 48.1437 8.83092 50.1992 9.98061L53.387 6.84509H57.9335L58.3516 32.1382H53.8573C52.8121 29.4208 51.5754 26.6511 50.147 23.8291C48.7534 20.9723 47.2727 18.6033 45.705 16.722C43.9979 14.7013 42.0295 13.0987 39.7998 11.9142C37.5701 10.6948 34.9571 10.0851 31.961 10.0851C28.1984 10.0851 25.1151 11.1477 22.7112 13.2729C20.3422 15.3981 19.1576 18.0284 19.1576 21.1639C19.1576 24.1253 20.1854 26.5466 22.2409 28.4279C24.3312 30.3092 27.5713 31.964 31.961 33.3924C34.5391 34.2634 37.1694 35.1344 39.852 36.0054C42.5346 36.8764 44.9211 37.7125 47.0114 38.5138C52.0631 40.4648 55.8954 43.1648 58.5083 46.6139C61.1561 50.0281 62.48 54.2785 62.48 59.365C62.48 62.5701 61.7309 65.6708 60.2329 68.667C58.7348 71.6631 56.7141 74.1541 54.1709 76.14C51.3837 78.3348 48.1611 80.0245 44.503 81.209C40.8449 82.3936 36.5772 82.9858 31.6997 82.9858ZM137.732 79.9026L112.805 81.4181L112.021 80.6864V73.8406H111.708C110.523 74.9206 109.356 75.9832 108.206 77.0283C107.091 78.0387 105.75 78.9619 104.182 79.7981C102.406 80.7387 100.716 81.4355 99.1132 81.8884C97.5455 82.3413 95.2461 82.5678 92.2151 82.5678C86.9544 82.5678 82.9131 80.9826 80.0911 77.8122C77.304 74.6419 75.9104 70.1651 75.9104 64.3818V40.8654C75.9104 39.5067 75.6491 38.4093 75.1266 37.5731C74.604 36.7022 73.9072 35.9357 73.0362 35.2738C72.3394 34.7512 71.4336 34.3854 70.3188 34.1763C69.2039 33.9325 68.1936 33.7757 67.2878 33.706V29.8911L92.6332 28.5324L93.208 29.3163V64.0682C93.208 67.6566 93.8874 70.3044 95.2461 72.0115C96.6397 73.7186 98.5384 74.5722 100.942 74.5722C103.416 74.5722 105.628 73.9277 107.579 72.6386C109.565 71.3496 111.011 69.9734 111.917 68.5102V40.3428C111.917 39.1583 111.69 38.0957 111.237 37.1551C110.784 36.2144 110.122 35.4479 109.251 34.8557C108.624 34.4376 107.718 34.1589 106.534 34.0195C105.384 33.8802 104.2 33.7757 102.98 33.706V29.8911L128.326 28.5324L129.11 29.3163V69.6599C129.11 70.8793 129.354 71.9244 129.841 72.7954C130.329 73.6315 131.043 74.3457 131.984 74.938C132.646 75.3561 133.499 75.6522 134.545 75.8264C135.625 75.9658 136.687 76.0529 137.732 76.0877V79.9026ZM210.947 81H179.487V77.1851C180.149 77.1154 180.95 77.0283 181.891 76.9238C182.831 76.8193 183.546 76.6451 184.033 76.4012C184.765 76.018 185.288 75.4606 185.601 74.729C185.915 73.9974 186.071 72.9173 186.071 71.4889V47.0319C186.071 43.4783 185.41 40.8132 184.086 39.0364C182.797 37.2247 180.88 36.3189 178.337 36.3189C176.944 36.3189 175.637 36.528 174.418 36.946C173.233 37.3641 172.066 37.9738 170.917 38.7751C169.906 39.4719 169.087 40.1861 168.46 40.9177C167.868 41.6493 167.363 42.2938 166.945 42.8512V70.9141C166.945 72.1335 167.119 73.1612 167.467 73.9974C167.816 74.7987 168.391 75.4083 169.192 75.8264C169.749 76.14 170.446 76.4187 171.282 76.6625C172.118 76.9064 172.937 77.0806 173.738 77.1851V81H141.965V77.1851C142.836 77.1154 143.707 77.0283 144.578 76.9238C145.484 76.7845 146.25 76.6103 146.878 76.4012C147.992 76.018 148.759 75.4258 149.177 74.6245C149.595 73.8232 149.804 72.778 149.804 71.4889V41.0745C149.804 39.9944 149.525 38.9319 148.968 37.8867C148.41 36.8415 147.679 35.988 146.773 35.326C146.146 34.9079 145.345 34.5596 144.369 34.2808C143.429 34.0021 142.383 33.8105 141.234 33.706V29.8911L166.161 28.5324L166.945 29.3163V36.8938H167.154C168.129 36.0228 169.314 34.9776 170.707 33.7583C172.101 32.5389 173.39 31.546 174.575 30.7795C175.864 29.9434 177.553 29.2292 179.644 28.6369C181.734 28.0447 183.964 27.7485 186.333 27.7485C192.012 27.7485 196.262 29.3685 199.084 32.6086C201.941 35.8138 203.369 40.0815 203.369 45.4119V71.0186C203.369 72.3077 203.561 73.3354 203.944 74.1019C204.327 74.8683 205.041 75.478 206.087 75.9309C206.644 76.1748 207.323 76.4187 208.125 76.6625C208.961 76.9064 209.901 77.0806 210.947 77.1851V81ZM240.055 82.7768C236.675 82.7768 233.365 82.2716 230.125 81.2613C226.92 80.2858 224.429 79.2406 222.652 78.1258L221.085 81.6794H217.009L216.329 62.1869H220.144C220.667 63.7547 221.538 65.5315 222.757 67.5173C223.976 69.4683 225.37 71.2276 226.938 72.7954C228.575 74.3632 230.439 75.687 232.529 76.7671C234.655 77.8471 236.919 78.3871 239.323 78.3871C242.493 78.3871 244.845 77.7774 246.378 76.558C247.946 75.3038 248.73 73.3877 248.73 70.8096C248.73 69.416 248.381 68.2663 247.684 67.3605C246.988 66.4547 246.029 65.6708 244.81 65.0089C243.451 64.3121 241.953 63.7198 240.316 63.2321C238.713 62.7443 236.727 62.1521 234.358 61.4553C231.989 60.7585 229.951 60.0617 228.244 59.365C226.572 58.6333 224.83 57.5011 223.018 55.9681C221.451 54.6094 220.196 52.972 219.256 51.0558C218.315 49.1397 217.845 46.8577 217.845 44.21C217.845 39.2977 219.9 35.326 224.011 32.295C228.157 29.264 233.575 27.7485 240.264 27.7485C243.434 27.7485 246.343 28.0795 248.991 28.7414C251.673 29.3685 253.921 30.0653 255.732 30.8318L256.83 27.7485H260.801L261.637 45.5687H257.927C256.708 41.9454 254.617 38.8273 251.656 36.2144C248.695 33.5666 245.507 32.2428 242.093 32.2428C239.41 32.2428 237.302 32.8002 235.769 33.915C234.236 35.0299 233.47 36.5802 233.47 38.566C233.47 41.2138 234.585 43.13 236.815 44.3145C239.079 45.499 242.232 46.6139 246.273 47.659C252.51 49.2616 257.073 51.4565 259.965 54.2436C262.857 56.9959 264.303 60.5146 264.303 64.7998C264.303 70.5134 262.055 74.938 257.561 78.0735C253.102 81.209 247.266 82.7768 240.055 82.7768ZM326.908 68.5102C325.689 70.496 324.208 72.3773 322.466 74.1541C320.759 75.8961 318.808 77.3942 316.613 78.6484C314.279 79.9722 311.91 80.9652 309.506 81.6271C307.137 82.3239 304.402 82.6723 301.302 82.6723C296.145 82.6723 291.686 81.9407 287.923 80.4774C284.196 79.0142 281.112 77.0458 278.674 74.5722C276.235 72.0986 274.406 69.1896 273.187 65.845C272.002 62.4656 271.41 58.8075 271.41 54.8707C271.41 51.3171 272.054 47.9203 273.343 44.6803C274.667 41.4054 276.531 38.4964 278.935 35.9531C281.304 33.4795 284.283 31.4763 287.871 29.9434C291.494 28.4105 295.536 27.644 299.995 27.644C304.873 27.644 308.879 28.2363 312.015 29.4208C315.15 30.6053 317.746 32.2428 319.801 34.3331C321.787 36.3189 323.233 38.6706 324.139 41.388C325.044 44.0706 325.497 46.8926 325.497 49.8539V53.2507H290.171C290.171 60.3927 291.547 65.8276 294.299 69.5554C297.051 73.2832 301.424 75.147 307.416 75.147C310.691 75.147 313.635 74.2586 316.248 72.4819C318.861 70.6702 321.09 68.3883 322.937 65.636L326.908 68.5102ZM306.946 48.6519C306.946 46.5616 306.841 44.419 306.632 42.2241C306.423 40.0293 306.057 38.2351 305.535 36.8415C304.942 35.2041 304.124 33.9673 303.078 33.1312C302.068 32.295 300.779 31.8769 299.211 31.8769C296.529 31.8769 294.386 33.2357 292.783 35.9531C291.181 38.6706 290.31 42.9732 290.171 48.861L306.946 48.6519ZM370.858 78.5961C368.628 79.5716 366.242 80.4426 363.698 81.209C361.155 82.0103 358.054 82.411 354.396 82.411C348.961 82.411 344.92 81.0871 342.272 78.4393C339.659 75.7916 338.353 72.0115 338.353 67.0992V35.0125H328.946V29.3685H338.562V13.5342H355.546V29.3685H370.178V35.0125H355.651V63.6502C355.651 67.7263 356.208 70.618 357.323 72.3251C358.473 74.0322 360.511 74.8857 363.437 74.8857C364.378 74.8857 365.684 74.8161 367.356 74.6767C369.029 74.5374 370.196 74.3806 370.858 74.2064V78.5961ZM465.603 81H425.52V76.9238C426.391 76.8542 427.663 76.7496 429.335 76.6103C431.007 76.4709 432.157 76.2619 432.784 75.9832C434.073 75.4606 434.962 74.7812 435.449 73.9451C435.937 73.0741 436.181 71.9767 436.181 70.6528V45.0984H404.512V70.078C404.512 71.2625 404.756 72.3251 405.244 73.2657C405.767 74.2064 406.637 74.938 407.857 75.4606C408.519 75.7393 409.651 76.0354 411.254 76.349C412.856 76.6625 414.163 76.8542 415.173 76.9238V81H375.091V76.9238C375.962 76.889 377.233 76.7845 378.906 76.6103C380.613 76.4012 381.85 76.1574 382.616 75.8787C383.87 75.4258 384.741 74.7464 385.229 73.8406C385.717 72.8999 385.961 71.8025 385.961 70.5483V18.0807C385.961 16.8613 385.734 15.8336 385.281 14.9974C384.863 14.1613 383.975 13.4297 382.616 12.8026C381.606 12.3497 380.282 11.949 378.644 11.6006C377.007 11.2174 375.822 10.9909 375.091 10.9213V6.84509H415.173V10.9213C414.093 10.9909 412.804 11.1651 411.306 11.4438C409.808 11.7226 408.658 11.9839 407.857 12.2277C406.498 12.6806 405.592 13.4123 405.139 14.4226C404.721 15.3981 404.512 16.4433 404.512 17.5581V39.7157H436.181V18.0807C436.181 16.8613 435.955 15.8336 435.502 14.9974C435.049 14.1613 434.143 13.4297 432.784 12.8026C431.878 12.3845 430.659 12.0013 429.126 11.6529C427.628 11.2697 426.426 11.0258 425.52 10.9213V6.84509H465.603V10.9213C464.488 10.9909 463.234 11.1477 461.84 11.3916C460.446 11.6006 459.192 11.8793 458.077 12.2277C456.753 12.6806 455.865 13.3948 455.412 14.3703C454.959 15.3458 454.733 16.4084 454.733 17.5581V70.078C454.733 71.3322 454.959 72.3948 455.412 73.2657C455.865 74.1367 456.753 74.8683 458.077 75.4606C458.913 75.809 460.115 76.1225 461.683 76.4012C463.286 76.68 464.592 76.8542 465.603 76.9238V81ZM531.971 79.9026C530.438 80.5645 528.626 81.1742 526.536 81.7316C524.446 82.289 522.233 82.5678 519.899 82.5678C515.614 82.5678 512.461 81.9407 510.44 80.6864C508.42 79.3974 507.044 77.5684 506.312 75.1993H505.998C504.814 76.3838 503.664 77.3942 502.549 78.2303C501.469 79.0664 500.302 79.7806 499.048 80.3729C497.411 81.1394 495.825 81.6968 494.293 82.0452C492.794 82.4284 490.687 82.62 487.969 82.62C483.928 82.62 480.479 81.4355 477.622 79.0664C474.765 76.6625 473.337 73.4922 473.337 69.5554C473.337 67.2908 473.65 65.3747 474.277 63.8069C474.905 62.2043 475.793 60.7934 476.943 59.574C477.988 58.4591 479.19 57.5359 480.549 56.8043C481.942 56.0727 483.458 55.3933 485.095 54.7662C488.231 53.6165 491.993 52.432 496.383 51.2126C500.773 49.9584 503.978 48.8436 505.998 47.8681V42.8512C505.998 41.9803 505.929 40.8306 505.789 39.4022C505.65 37.9738 505.354 36.7718 504.901 35.7963C504.413 34.6815 503.647 33.7408 502.602 32.9744C501.556 32.2079 500.18 31.8247 498.473 31.8247C496.94 31.8247 495.651 32.0511 494.606 32.5041C493.596 32.9221 492.777 33.3576 492.15 33.8105C492.254 34.5073 492.551 35.5699 493.038 36.9983C493.526 38.4267 493.77 39.8028 493.77 41.1267C493.77 41.719 493.613 42.468 493.3 43.3738C492.986 44.2448 492.533 44.9416 491.941 45.4642C491.14 46.161 490.234 46.701 489.223 47.0842C488.248 47.4674 486.732 47.659 484.677 47.659C481.75 47.659 479.538 46.9623 478.04 45.5687C476.542 44.1403 475.793 42.2938 475.793 40.0293C475.793 38.0783 476.559 36.3363 478.092 34.8034C479.66 33.2357 481.559 31.9466 483.789 30.9363C485.983 29.8911 488.509 29.0898 491.366 28.5324C494.223 27.9401 496.871 27.644 499.309 27.644C502.689 27.644 505.789 27.853 508.611 28.2711C511.433 28.6543 513.977 29.4731 516.241 30.7273C518.401 31.9466 520.108 33.7234 521.362 36.0576C522.651 38.357 523.296 41.3706 523.296 45.0984C523.296 49.0352 523.209 53.7036 523.035 59.1037C522.895 64.5037 522.826 68.0573 522.826 69.7644C522.826 71.3322 523.052 72.569 523.505 73.4748C523.993 74.3806 524.724 75.0599 525.7 75.5129C526.292 75.7916 527.215 75.9658 528.47 76.0354C529.759 76.0703 530.926 76.0877 531.971 76.0877V79.9026ZM505.998 52.6759C504.047 53.3378 502.114 54.1043 500.198 54.9752C498.282 55.8114 496.714 56.6998 495.494 57.6404C494.205 58.6159 493.195 59.8701 492.463 61.403C491.732 62.9011 491.366 64.6779 491.366 66.7334C491.366 69.4509 491.976 71.4193 493.195 72.6386C494.449 73.858 495.982 74.4677 497.794 74.4677C499.71 74.4677 501.278 74.0844 502.497 73.318C503.751 72.5167 504.849 71.5412 505.789 70.3915L505.998 52.6759ZM565.835 82.6723C560.992 82.6723 556.707 81.9755 552.979 80.5819C549.286 79.1535 546.238 77.22 543.834 74.7812C541.43 72.3077 539.636 69.3812 538.451 66.0018C537.266 62.6224 536.674 58.9469 536.674 54.9752C536.674 51.352 537.388 47.9029 538.817 44.628C540.28 41.3532 542.248 38.4789 544.722 36.0054C547.265 33.4621 550.418 31.4415 554.181 29.9434C557.978 28.4105 562.159 27.644 566.723 27.644C573.133 27.644 578.202 28.8634 581.93 31.3021C585.658 33.706 587.522 36.9634 587.522 41.0745C587.522 43.5829 586.86 45.6035 585.536 47.1364C584.212 48.6694 581.93 49.4358 578.69 49.4358C576.077 49.4358 573.882 48.8087 572.106 47.5545C570.364 46.3003 569.493 44.6629 569.493 42.6422C569.493 40.9351 569.771 39.2454 570.329 37.5731C570.886 35.9009 571.217 34.6292 571.322 33.7583C570.938 33.1312 570.451 32.6608 569.858 32.3473C569.266 31.9989 568.343 31.8247 567.089 31.8247C565.521 31.8247 564.093 32.1905 562.804 32.9221C561.514 33.6537 560.313 34.9428 559.198 36.7893C558.118 38.5312 557.247 40.8654 556.585 43.7919C555.958 46.7184 555.644 50.2371 555.644 54.3481C555.644 60.5495 557.09 65.5489 559.982 69.3463C562.908 73.1438 566.392 75.0425 570.433 75.0425C574.3 75.0425 577.366 74.189 579.631 72.4819C581.93 70.7399 583.968 68.2837 585.745 65.1134L589.664 67.8308C588.584 69.956 587.295 71.907 585.797 73.6838C584.299 75.4258 582.505 76.9761 580.415 78.3348C578.22 79.7632 575.99 80.8432 573.726 81.5748C571.461 82.3065 568.831 82.6723 565.835 82.6723ZM659.9 81H635.286C632.255 75.6696 629.485 71.158 626.977 67.465C624.469 63.7373 622.1 60.2882 619.87 57.1178L616.734 59.783V71.1754C616.734 72.4296 616.909 73.4573 617.257 74.2586C617.64 75.0599 618.354 75.6522 619.4 76.0354C620.027 76.3141 620.758 76.558 621.594 76.7671C622.431 76.9761 623.267 77.1154 624.103 77.1851V81H591.755V77.1851C592.626 77.1154 593.497 77.0283 594.368 76.9238C595.239 76.7845 596.005 76.6103 596.667 76.4012C597.782 76.018 598.531 75.4258 598.914 74.6245C599.332 73.8232 599.541 72.778 599.541 71.4889V13.2206C599.541 12.071 599.28 10.8864 598.757 9.66706C598.27 8.41285 597.538 7.4722 596.563 6.84509C595.901 6.42703 594.908 6.07864 593.584 5.79992C592.26 5.52121 591.058 5.34702 589.978 5.27734V1.46246L615.95 0.10374L616.734 0.939877V54.8707C619.312 52.5713 622.204 49.9062 625.409 46.8752C628.649 43.8442 631.245 41.3357 633.196 39.3499C634.345 38.1654 634.973 37.277 635.077 36.6847C635.216 36.0576 635.286 35.6744 635.286 35.535C635.286 34.9079 634.729 34.3854 633.614 33.9673C632.534 33.5492 630.896 33.1834 628.702 32.8699V29.1595H655.249V32.7653C651.765 33.7408 649.1 34.6641 647.253 35.535C645.442 36.3712 643.456 37.5035 641.296 38.9319C639.867 39.8725 638.474 40.8654 637.115 41.9106C635.791 42.9209 634.258 44.1925 632.516 45.7255C635.931 50.6726 639.084 55.2539 641.975 59.4695C644.867 63.685 647.898 68.1444 651.068 72.8477C652.148 74.4851 653.49 75.5825 655.092 76.14C656.695 76.6974 658.297 77.0458 659.9 77.1851V81ZM684.67 82.7768C681.291 82.7768 677.981 82.2716 674.741 81.2613C671.536 80.2858 669.045 79.2406 667.268 78.1258L665.701 81.6794H661.624L660.945 62.1869H664.76C665.283 63.7547 666.153 65.5315 667.373 67.5173C668.592 69.4683 669.986 71.2276 671.554 72.7954C673.191 74.3632 675.055 75.687 677.145 76.7671C679.27 77.8471 681.535 78.3871 683.939 78.3871C687.109 78.3871 689.461 77.7774 690.994 76.558C692.561 75.3038 693.345 73.3877 693.345 70.8096C693.345 69.416 692.997 68.2663 692.3 67.3605C691.603 66.4547 690.645 65.6708 689.426 65.0089C688.067 64.3121 686.569 63.7198 684.932 63.2321C683.329 62.7443 681.343 62.1521 678.974 61.4553C676.605 60.7585 674.567 60.0617 672.86 59.365C671.188 58.6333 669.446 57.5011 667.634 55.9681C666.066 54.6094 664.812 52.972 663.872 51.0558C662.931 49.1397 662.461 46.8577 662.461 44.21C662.461 39.2977 664.516 35.326 668.627 32.295C672.773 29.264 678.19 27.7485 684.879 27.7485C688.05 27.7485 690.959 28.0795 693.607 28.7414C696.289 29.3685 698.536 30.0653 700.348 30.8318L701.445 27.7485H705.417L706.253 45.5687H702.543C701.324 41.9454 699.233 38.8273 696.272 36.2144C693.311 33.5666 690.123 32.2428 686.709 32.2428C684.026 32.2428 681.918 32.8002 680.385 33.915C678.852 35.0299 678.086 36.5802 678.086 38.566C678.086 41.2138 679.201 43.13 681.43 44.3145C683.695 45.499 686.848 46.6139 690.889 47.659C697.125 49.2616 701.689 51.4565 704.581 54.2436C707.473 56.9959 708.918 60.5146 708.918 64.7998C708.918 70.5134 706.671 74.938 702.177 78.0735C697.718 81.209 691.882 82.7768 684.67 82.7768Z" fill="white"/>
</svg>
